<svg xmlns="http://www.w3.org/2000/svg" width="1200" height="630" viewBox="0 0 1200 630" role="img" aria-label="iSpend — find out where the money went">
  <style>
    @font-face { font-family: 'Newsreader'; src: url('/fonts/Newsreader-latin.woff2') format('woff2'); font-weight: 400 500; }
    @font-face { font-family: 'Newsreader'; src: url('/fonts/Newsreader-Italic-latin.woff2') format('woff2'); font-weight: 400; font-style: italic; }
    @font-face { font-family: 'Inter'; src: url('/fonts/InterVariable-latin.woff2') format('woff2'); font-weight: 100 900; }
    @font-face { font-family: 'IBM Plex Mono'; src: url('/fonts/IBMPlexMono.woff2') format('woff2'); font-weight: 400; }
    .d { font-family: 'Newsreader', Georgia, serif; font-weight: 500; letter-spacing: -1.5px; fill: #111827; }
    .i { font-style: italic; font-weight: 400; }
    .b { font-family: 'Inter', system-ui, sans-serif; fill: #4b5563; }
    .m { font-family: 'IBM Plex Mono', Menlo, monospace; font-size: 17px; fill: #626b7a; }
    .k { font-family: 'Inter', system-ui, sans-serif; font-size: 15px; font-weight: 600; letter-spacing: 2px; fill: #626b7a; }
    .amt { font-family: 'Inter', system-ui, sans-serif; font-size: 17px; font-weight: 500; fill: #111827; }
  </style>
  <rect width="1200" height="630" fill="#f5f6f8"/>
  <g stroke="#111827" stroke-opacity="0.06">
    <line x1="0" y1="96" x2="1200" y2="96"/><line x1="0" y1="128" x2="1200" y2="128"/><line x1="0" y1="160" x2="1200" y2="160"/><line x1="0" y1="192" x2="1200" y2="192"/><line x1="0" y1="224" x2="1200" y2="224"/><line x1="0" y1="256" x2="1200" y2="256"/><line x1="0" y1="288" x2="1200" y2="288"/><line x1="0" y1="320" x2="1200" y2="320"/><line x1="0" y1="352" x2="1200" y2="352"/><line x1="0" y1="384" x2="1200" y2="384"/><line x1="0" y1="416" x2="1200" y2="416"/><line x1="0" y1="448" x2="1200" y2="448"/><line x1="0" y1="480" x2="1200" y2="480"/><line x1="0" y1="512" x2="1200" y2="512"/><line x1="0" y1="544" x2="1200" y2="544"/>
  </g>

  <g transform="translate(72 64)">
    <svg viewBox="0 0 64 64" width="40" height="40" x="0" y="-2" xmlns="http://www.w3.org/2000/svg"><defs><linearGradient id="ogmb" x1="0" y1="0" x2="0.3" y2="1"><stop offset="0" stop-color="#6d88f6"/><stop offset="1" stop-color="#2f4ccc"/></linearGradient><linearGradient id="ogmd" x1="0" y1="0" x2="0.3" y2="1"><stop offset="0" stop-color="#16224d"/><stop offset="1" stop-color="#0a1130"/></linearGradient><clipPath id="ogmc"><circle cx="32" cy="32" r="30" fill="#000"/></clipPath><filter id="ogms" x="-20%" y="-20%" width="140%" height="140%"><feGaussianBlur stdDeviation="0.35"/></filter><radialGradient id="ogmh" cx="0.3" cy="0.22" r="0.75"><stop offset="0" stop-color="#ffffff" stop-opacity="0.16"/><stop offset="0.55" stop-color="#ffffff" stop-opacity="0.02"/><stop offset="1" stop-color="#ffffff" stop-opacity="0"/></radialGradient></defs><circle cx="32" cy="32" r="30" fill="url(#ogmb)"/><path d="M32 2A11 15 0 0 1 32 32A11 15 0 0 0 32 62A30 30 0 0 1 32 2Z" fill="#1e35a6" fill-opacity="1" filter="url(#ogms)" clip-path="url(#ogmc)" transform="translate(2.4 1.4)"/><path d="M32 2A11 15 0 0 1 32 32A11 15 0 0 0 32 62A30 30 0 0 1 32 2Z" fill="url(#ogmd)"/><circle cx="32" cy="32" r="30" fill="url(#ogmh)"/><path d="M32 2A11 15 0 0 1 32 32A11 15 0 0 0 32 62" fill="none" stroke="#ffffff" stroke-opacity="0.75" stroke-width="1.2" clip-path="url(#ogmc)" transform="translate(0.9 0)"/><path d="M26.98 3.54A28.9 28.9 0 0 0 4.84 41.88" fill="none" stroke="#ffffff" stroke-opacity="0.55" stroke-width="1.5" stroke-linecap="round"/><path d="M37.02 60.46A28.9 28.9 0 0 0 59.16 22.12" fill="none" stroke="#070c22" stroke-opacity="0.49500000000000005" stroke-width="1.5" stroke-linecap="round"/><circle cx="32" cy="32" r="29.1" fill="none" stroke="#ffffff" stroke-opacity="0.22" stroke-width="1.2"/></svg>
    <text x="52" y="26" class="b" font-size="24" font-weight="650" fill="#111827" letter-spacing="-0.5">iSpend</text>
  </g>

  <text x="72" y="232" class="d" font-size="88">Where did the</text>
  <text x="72" y="322" class="d" font-size="88">money go?</text>
  <text x="72" y="412" class="d i" font-size="88">Now you’ll know.</text>
  <text x="72" y="478" class="b" font-size="24">Reads the statement you already download.</text>
  <text x="72" y="510" class="b" font-size="24">No bank login, ever.</text>

  <g transform="translate(744 128)">
    <rect x="0.5" y="0.5" width="384" height="368" rx="14" fill="#ffffff" stroke="#e5e8ee"/>
    <rect x="0.5" y="0.5" width="384" height="44" rx="14" fill="#f2f4f7"/>
    <rect x="0.5" y="30" width="384" height="15" fill="#f2f4f7"/>
    <line x1="0.5" y1="45" x2="384.5" y2="45" stroke="#e5e8ee"/>
    <text x="18" y="29" class="m" font-size="14" fill="#111827">chase-2026-09.pdf</text>
    <text x="368" y="29" class="m" font-size="13" text-anchor="end">148 lines</text>

    <text x="18" y="78" class="k">AS THE BANK PRINTS IT</text>
    <text x="18" y="108" class="m">09/02  SQ *BLUE BOTTLE COFFEE</text><text x="368" y="108" class="m" text-anchor="end">-6.75</text>
    <text x="18" y="138" class="m">09/02  SHELL OIL 57445216</text><text x="368" y="138" class="m" text-anchor="end">-52.40</text>
    <text x="18" y="168" class="m">09/05  NETFLIX.COM</text><text x="368" y="168" class="m" text-anchor="end">-15.49</text>
    <line x1="18" y1="186" x2="368" y2="186" stroke="#cfd5df"/>

    <text x="18" y="216" class="k" fill="#15803d">AS ISPEND READS IT</text>
    <text x="18" y="248" class="amt">Blue Bottle</text><rect x="122" y="233" width="62" height="22" rx="11" fill="#b87800" fill-opacity="0.14"/><text x="153" y="248" class="b" font-size="12" font-weight="500" fill="#b87800" text-anchor="middle">Coffee</text><text x="368" y="248" class="amt" text-anchor="end">−$27.00</text>
    <text x="18" y="280" class="amt">Shell</text><rect x="122" y="265" width="50" height="22" rx="11" fill="#4a3aa7" fill-opacity="0.14"/><text x="147" y="280" class="b" font-size="12" font-weight="500" fill="#4a3aa7" text-anchor="middle">Fuel</text><text x="368" y="280" class="amt" text-anchor="end">−$101.30</text>
    <text x="18" y="312" class="amt">Netflix</text><rect x="122" y="297" width="94" height="22" rx="11" fill="#d4497f" fill-opacity="0.14"/><text x="169" y="312" class="b" font-size="12" font-weight="500" fill="#d4497f" text-anchor="middle">Subscription</text><text x="368" y="312" class="amt" text-anchor="end">−$15.49</text>
    <line x1="18" y1="330" x2="368" y2="330" stroke="#111827"/>
    <text x="18" y="354" class="b" font-size="14">Spent so far, September</text><text x="368" y="355" class="amt" font-size="20" font-weight="650" text-anchor="end">$362.75</text>
    <line x1="18" y1="364" x2="368" y2="364" stroke="#111827"/><line x1="18" y1="367" x2="368" y2="367" stroke="#111827"/>
  </g>

  <text x="72" y="566" class="k">14-DAY FREE TRIAL · NO CARD · NO BANK LOGIN</text>
</svg>
